# Blender 4.2.1 LTS
# www.blender.org
mtllib tree.mtl
o tree01
v 0.000000 -0.000000 -0.400000
v -0.346410 -0.000000 -0.200000
v -0.346410 0.000000 0.200000
v 0.000000 0.000000 0.400000
v 0.346410 0.000000 0.200000
v 0.346410 -0.000000 -0.200000
v 0.000000 2.000000 -0.245001
v -0.212176 2.000000 -0.122501
v -0.212176 2.000000 0.122499
v 0.000000 2.000000 0.244999
v 0.212176 2.000000 0.122499
v 0.212176 2.000000 -0.122501
v 0.000000 10.000000 -0.120003
v -0.103923 10.000000 -0.060003
v -0.103923 10.000000 0.059997
v 0.000000 10.000000 0.119997
v 0.103923 10.000000 0.059997
v 0.103923 10.000000 -0.060003
v 0.000000 10.100000 -0.000003
v 0.000000 0.000000 0.000000
v 3.000000 2.500000 -0.010001
v -3.000000 2.500000 -0.010000
v 3.000000 12.500000 -0.010004
v -3.000000 12.500000 -0.010004
v -3.000000 2.500000 0.010000
v 3.000000 2.500000 0.009999
v -3.000000 12.500000 0.009997
v 3.000000 12.500000 0.009996
v 0.009999 2.500001 3.000000
v 0.010000 2.500000 -3.000000
v 0.010000 12.500001 2.999996
v 0.010000 12.499999 -3.000004
v -0.010000 2.500000 -3.000000
v -0.010000 2.500001 3.000000
v -0.010000 12.499999 -3.000004
v -0.010000 12.500001 2.999996
v -2.128391 2.499999 -2.114250
v 2.114249 2.500001 2.128391
v -2.128392 12.499999 -2.114253
v 2.114249 12.500001 2.128388
v 2.128392 2.500001 2.114249
v -2.114249 2.499999 -2.128392
v 2.128392 12.500001 2.114245
v -2.114249 12.499999 -2.128395
v 2.114249 2.500000 -2.128392
v -2.128391 2.500001 2.114249
v 2.114249 12.499997 -2.128395
v -2.128392 12.500001 2.114245
v -2.114249 2.500001 2.128391
v 2.128391 2.500000 -2.114250
v -2.114249 12.500001 2.128388
v 2.128391 12.499997 -2.114253
vn -0.4989 0.0670 -0.8641
vn 0.4989 0.0670 -0.8641
vn 0.4989 0.0670 0.8641
vn -0.9978 0.0670 -0.0000
vn 0.9978 0.0670 -0.0000
vn -0.4989 0.0670 0.8641
vn 0.5000 0.0135 -0.8659
vn 0.5000 0.0135 0.8659
vn -0.9999 0.0135 -0.0000
vn 0.9999 0.0135 -0.0000
vn -0.5000 0.0135 0.8659
vn -0.5000 0.0135 -0.8659
vn 0.3467 0.7206 -0.6005
vn 0.3467 0.7206 0.6005
vn -0.6934 0.7206 -0.0000
vn 0.6934 0.7206 -0.0000
vn -0.3467 0.7206 0.6005
vn -0.3467 0.7206 -0.6005
vn -0.0000 -1.0000 -0.0000
vn -0.0000 -0.0000 -1.0000
vn -0.0000 -0.0000 1.0000
vn 1.0000 -0.0000 -0.0000
vn -1.0000 -0.0000 -0.0000
vn -0.7071 -0.0000 0.7071
vn 0.7071 -0.0000 -0.7071
vn -0.7071 -0.0000 -0.7071
vn 0.7071 -0.0000 0.7071
vt 0.222594 0.155184
vt 0.191814 0.149483
vt 0.168934 0.305670
vt 0.066806 0.149815
vt 0.036160 0.155661
vt 0.071389 0.308103
vt 0.129258 0.145034
vt 0.097912 0.146268
vt 0.110117 0.304516
vt 0.160629 0.146103
vt 0.149421 0.304408
vt 0.090611 0.305885
vt 0.129768 0.304020
vt 0.103095 0.943341
vt 0.122105 0.942698
vt 0.141110 0.942657
vt 0.112604 0.942945
vt 0.131605 0.942603
vt 0.188166 0.307781
vt 0.150625 0.942848
vt 0.193871 0.081919
vt 0.174065 0.066583
vt 0.171050 0.089788
vt 0.152353 0.075310
vt 0.154260 0.051246
vt 0.177081 0.043377
vt 0.195778 0.057854
vt 0.054963 0.086652
vt 0.093496 0.068298
vt 0.058334 0.044105
vt 0.090125 0.110846
vt 0.132029 0.049944
vt 0.128658 0.092491
vt 0.096867 0.025750
vt 0.986305 0.029833
vt 0.273525 0.970167
vt 0.273525 0.029833
vt 0.273766 0.029833
vt 0.986064 0.970167
vt 0.986064 0.029833
vt 0.273766 0.970167
vt 0.160158 0.943194
vt 0.986305 0.970167
s 1
usemtl tree01
f 1/1/1 2/2/1 8/3/1
f 6/4/2 1/5/2 7/6/2
f 4/7/3 5/8/3 11/9/3
f 2/2/4 3/10/4 9/11/4
f 5/8/5 6/4/5 12/12/5
f 3/10/6 4/7/6 10/13/6
f 12/12/7 7/6/7 13/14/7
f 10/13/8 11/9/8 17/15/8
f 8/3/9 9/11/9 15/16/9
f 11/9/10 12/12/10 18/17/10
f 10/13/11 16/18/11 15/16/11
f 7/19/12 8/3/12 14/20/12
f 13/21/13 19/22/13 18/23/13
f 17/24/14 19/22/14 16/25/14
f 15/26/15 19/22/15 14/27/15
f 18/23/16 19/22/16 17/24/16
f 16/25/17 19/22/17 15/26/17
f 14/27/18 19/22/18 13/21/18
f 1/28/19 20/29/19 2/30/19
f 6/31/19 20/29/19 1/28/19
f 4/32/19 20/29/19 5/33/19
f 2/30/19 20/29/19 3/34/19
f 5/33/19 20/29/19 6/31/19
f 3/34/19 20/29/19 4/32/19
f 22/35/20 23/36/20 21/37/20
f 26/38/21 27/39/21 25/40/21
f 30/35/22 31/36/22 29/37/22
f 33/40/23 36/41/23 35/39/23
f 38/35/24 39/36/24 37/37/24
f 41/40/25 44/41/25 43/39/25
f 46/35/26 47/36/26 45/37/26
f 49/40/27 52/41/27 51/39/27
f 1/1/1 8/3/1 7/19/1
f 6/4/2 7/6/2 12/12/2
f 4/7/3 11/9/3 10/13/3
f 2/2/4 9/11/4 8/3/4
f 5/8/5 12/12/5 11/9/5
f 3/10/6 10/13/6 9/11/6
f 12/12/7 13/14/7 18/17/7
f 10/13/8 17/15/8 16/18/8
f 8/3/9 15/16/9 14/20/9
f 11/9/10 18/17/10 17/15/10
f 10/13/11 15/16/11 9/11/11
f 7/19/12 14/20/12 13/42/12
f 22/35/20 24/43/20 23/36/20
f 26/38/21 28/41/21 27/39/21
f 30/35/22 32/43/22 31/36/22
f 33/40/23 34/38/23 36/41/23
f 38/35/24 40/43/24 39/36/24
f 41/40/25 42/38/25 44/41/25
f 46/35/26 48/43/26 47/36/26
f 49/40/27 50/38/27 52/41/27
