# Blender 4.2.1 LTS
# www.blender.org
mtllib big rock.mtl
o big_rock
v 0.940186 -1.142600 -5.429056
v 0.430419 -1.142600 -6.159623
v 0.252967 -0.825702 -6.597279
v -0.388005 2.657310 -5.593123
v -0.362856 2.439751 -5.218122
v -0.228955 -1.142600 -5.579386
v -0.489235 1.807049 -4.954268
v 0.940186 2.439751 -5.511496
v 0.631196 2.439751 -4.889429
v -0.126519 -0.647488 -6.597279
v -0.525411 1.189764 -6.597279
v -0.653118 0.558497 -6.298802
v -0.453808 -0.697182 -6.216151
v 0.201439 2.439751 -6.597279
v 0.940186 2.439751 -5.753853
v 0.498913 -1.142600 -5.185912
v -0.300646 1.154161 -4.576517
v -0.109463 -1.142600 -5.108525
v 0.783979 1.773165 -4.516900
v 0.940186 1.529976 -4.583255
v 0.672734 0.147815 -6.710088
v 1.033252 0.207195 -6.227769
v 1.002123 0.805710 -6.263221
v 0.658333 1.649906 -6.710088
vn -0.3828 -0.8150 -0.4350
vn -0.7384 -0.1603 -0.6550
vn -0.2854 0.4169 0.8630
vn 0.1073 0.9933 0.0439
vn -0.9602 -0.1364 0.2437
vn -0.9895 0.1438 -0.0137
vn 0.8155 0.4133 0.4051
vn 0.0887 -0.2255 0.9702
vn -0.0000 -1.0000 -0.0000
vn 0.9989 0.0070 0.0462
vn 0.8183 0.3009 -0.4897
vn 0.7998 0.0072 -0.6002
vn 0.7570 -0.3705 -0.5383
vn -0.1037 -0.0014 -0.9946
vn 0.4651 -0.2671 0.8440
vn -0.7359 0.4279 -0.5247
vt 0.316775 0.308749
vt 0.488084 0.308749
vt 0.568190 0.173081
vt 0.270533 -0.006785
vt 0.169028 0.190604
vt 0.316775 0.127283
vt 0.169028 0.114205
vt 0.079055 0.444655
vt 0.136705 0.610782
vt 0.110536 0.596725
vt -0.116806 0.133490
vt 0.056600 0.059599
vt 0.371365 0.379428
vt 0.292711 0.536882
vt 0.297038 0.504997
vt 0.190589 0.154064
vt 0.241663 0.062785
vt 0.646371 0.140413
vt 0.691516 0.348705
vt 0.664527 0.410332
vt 0.135121 0.601413
vt 0.252219 0.773229
vt 0.669009 0.444655
vt 0.643388 0.114205
vt 0.445999 -0.003013
vt 0.300037 -0.003013
vt 0.755561 0.237760
vt 0.655709 0.723638
vt 0.814040 0.828948
vt 1.034082 0.345983
vt 0.885120 0.235421
vt 0.232120 0.939734
vt 0.116640 0.764312
vt 0.137210 0.700314
vt 0.424953 0.939734
vt 0.230718 0.779077
vt -0.258909 0.616177
vt -0.172604 0.011752
vt 0.102032 0.011752
vt 0.301233 0.715078
vt 0.509131 0.340414
vt 0.739253 0.113947
vt 0.540051 0.038576
vt 0.265415 0.014586
vt 0.211474 0.160548
vt 0.657979 0.509713
vt 0.500081 0.939734
vt 0.399398 -0.003013
vt 0.646990 0.352205
vt 0.796503 0.731875
vt 0.761533 0.939734
vt 0.840324 0.352205
vt 0.677577 0.336578
vt 0.671076 0.731875
vt 0.826272 0.509713
vt 0.568190 -0.003013
vt 0.488084 0.080384
vt 0.798312 -0.003013
vt 0.545195 0.566488
vt 0.873313 0.895440
vt 1.079566 0.687581
vt 1.086067 0.292284
vt 0.896574 0.036090
vt 0.725265 0.082989
vt 0.798312 0.700314
vt 0.599110 -0.003013
vt 0.093566 0.021321
vt 0.061757 0.484850
vt 0.311765 0.184020
s 1
usemtl stone1
f 10/1/1 3/2/1 2/3/1 6/4/1 13/5/1
f 10/6/2 13/7/2 12/8/2 11/9/2
f 17/10/3 19/11/3 9/12/3 5/13/3 7/14/3
f 14/15/4 4/16/4 5/17/4 9/18/4 8/19/4 15/20/4
f 17/21/5 7/22/5 12/23/5 13/24/5 6/25/5 18/26/5
f 4/27/6 11/28/6 12/29/6 7/30/6 5/31/6
f 9/32/7 19/33/7 20/34/7 8/35/7
f 19/36/8 17/37/8 18/38/8 16/39/8 20/40/8
f 2/41/9 1/42/9 16/43/9 18/44/9 6/45/9
f 23/46/10 15/47/10 8/35/10 20/34/10 1/48/10 22/49/10
f 15/47/11 23/46/11 24/50/11 14/51/11
f 22/52/12 21/53/12 24/54/12 23/55/12
f 2/56/13 3/57/13 21/53/13 22/52/13 1/58/13
f 11/59/14 14/60/14 24/61/14 21/62/14 3/63/14 10/64/14
f 1/58/15 20/65/15 16/66/15
f 14/67/16 11/68/16 4/69/16
