# Blender 4.2.1 LTS
# www.blender.org
mtllib med rock2.mtl
o mediun_rock_2
v 0.596393 0.421157 0.911278
v -0.627005 0.280454 0.925748
v 0.613163 0.745248 -0.555082
v 0.196953 0.798892 -0.676152
v 0.282291 0.764118 -0.712758
v -0.653118 0.295705 0.902956
v -0.770684 0.173774 -0.383398
v 1.112549 0.475334 0.356159
v 0.699718 0.535995 0.869742
v 0.588077 1.003585 0.096752
v 0.367964 1.118734 0.256942
v 1.097884 0.052489 0.090009
v 1.027453 0.479962 -0.654990
v 1.181803 0.355263 0.196467
v -0.250599 -0.093908 0.827069
v 0.515796 -0.001302 0.720926
v -0.062264 -0.098631 -0.692530
v -0.784800 -0.010320 -0.316002
v -0.780682 -0.011523 -0.263775
v 1.000150 -0.056135 0.129298
v -0.073465 1.048831 -0.199078
v 0.298297 1.122707 0.223743
v -0.659376 0.930241 -0.004728
v -0.630622 0.774707 0.552556
vn -0.0044 -0.9996 0.0268
vn 0.5830 0.7297 0.3572
vn -0.6459 -0.7179 0.2597
vn 0.9597 -0.1948 -0.2025
vn 0.6767 0.7249 -0.1289
vn 0.4338 -0.7508 -0.4981
vn -0.9911 0.1055 0.0806
vn -0.3793 0.0591 -0.9234
vn 0.6896 -0.4028 0.6019
vn 0.0936 -0.3086 0.9466
vn -0.2340 0.9563 0.1753
vn -0.0796 0.5699 0.8178
vn -0.4733 0.5260 -0.7066
vn 0.2197 0.9098 -0.3521
vn 0.1061 0.0766 -0.9914
vn -0.0463 0.7250 0.6872
vt 0.207240 0.210424
vt 0.390590 0.221708
vt 0.463919 0.499937
vt 0.462468 0.512291
vt 0.276435 0.567139
vt 0.066862 0.326214
vt 0.127406 0.200843
vt 0.187722 0.035757
vt 0.267889 0.157923
vt 0.168461 0.235723
vt 0.252292 0.347369
vt 0.178963 0.069140
vt 0.272113 0.061296
vt 0.277181 0.067723
vt 0.361627 0.089626
vt 0.162855 0.150133
vt 0.157618 0.071468
vt 0.689862 0.163860
vt 0.841811 0.115811
vt 0.924587 0.220353
vt 0.890126 0.242596
vt 0.685621 0.205865
vt 0.025456 0.504474
vt 0.042509 0.330191
vt 0.650667 0.504190
vt 0.529771 0.341391
vt 0.537853 0.295384
vt 0.550079 0.293009
vt 0.837276 0.318571
vt 0.775104 0.445288
vt 0.838578 0.782349
vt 0.608604 0.939602
vt 0.586895 0.932024
vt 0.658371 0.723209
vt 0.842045 0.739557
vt 0.276740 0.073808
vt 0.273112 0.116915
vt 0.190865 0.203990
vt 0.158249 0.192065
vt 0.102005 0.096438
vt 0.200013 -0.001487
vt 0.230865 0.009792
vt 0.465057 0.487159
vt 0.571941 0.417460
vt 0.748555 0.471471
vt 0.741551 0.582191
vt 0.031992 0.790968
vt 0.043423 0.654459
vt 0.268263 0.759064
vt 0.168844 0.849282
vt 0.021350 0.550614
vt 0.027106 0.544948
vt 0.316344 0.570691
vt 0.345212 0.586973
vt 0.834338 0.968622
vt 0.691445 1.002043
vt 0.148063 0.194492
vt 0.109785 0.091361
vt 0.209204 0.001143
vt 0.225838 -0.005862
vt 0.266892 0.029018
vt 0.244085 0.169259
vt 0.165086 0.202531
vt 0.410524 0.876037
vt 0.514379 0.934522
vt 0.284896 0.752059
s 1
usemtl stone1
f 16/1/1 15/2/1 19/3/1 18/4/1 17/5/1 20/6/1
f 11/7/2 9/8/2 8/9/2 10/10/2
f 19/11/3 15/12/3 2/13/3 6/14/3
f 13/15/4 14/16/4 12/17/4
f 3/18/5 10/19/5 8/20/5 14/21/5 13/22/5
f 20/6/6 17/5/6 13/23/6 12/24/6
f 23/25/7 7/26/7 18/27/7 19/28/7 6/29/7 24/30/7
f 7/31/8 4/32/8 5/33/8 17/34/8 18/35/8
f 14/36/9 8/37/9 9/38/9 1/39/9 16/40/9 20/41/9 12/42/9
f 2/43/10 15/44/10 16/45/10 1/46/10
f 23/47/11 24/48/11 22/49/11 21/50/11
f 6/51/12 2/52/12 1/53/12 9/54/12 24/48/12
f 7/31/13 23/55/13 21/56/13 4/32/13
f 4/57/14 21/58/14 22/59/14 11/60/14 10/61/14 3/62/14 5/63/14
f 13/64/15 17/34/15 5/33/15 3/65/15
f 24/48/16 9/54/16 11/66/16 22/49/16
