# Blender 4.2.1 LTS
# www.blender.org
mtllib med rock3.mtl
o mediun_rock_3
v -0.554542 0.378332 3.645246
v -0.095162 0.385998 3.804799
v 0.737488 0.526754 3.366273
v 0.282095 0.661022 3.572662
v -0.584607 0.693164 3.355985
v -0.609829 0.833293 2.627961
v 0.076280 0.914085 3.133159
v 0.709044 0.618314 2.285102
v 0.509155 0.758415 2.213904
v 0.709070 0.806963 3.024839
v 0.169941 0.997372 2.946157
v 0.101294 1.004015 2.759108
v -0.541006 0.106038 3.473440
v -0.072177 0.440911 1.986814
v -0.089888 0.487639 1.981453
v -0.602144 0.695377 2.477054
v -0.554735 0.136434 2.688585
v -0.320789 -0.071736 2.442669
v 0.734369 0.290991 2.285571
v 0.617804 0.203018 2.239365
v 0.743456 0.451869 3.375147
v 0.386778 0.203563 3.682111
v -0.110866 -0.169442 3.201888
v -0.041625 -0.208953 2.582290
vn -0.0683 -0.7524 0.6552
vn 0.4185 0.2886 0.8611
vn -0.1491 0.7670 0.6241
vn -0.2637 0.9442 0.1972
vn 0.3013 0.8286 0.4719
vn -0.7448 -0.2500 -0.6187
vn 0.4245 0.8926 -0.1517
vn -0.5508 -0.8345 0.0145
vn -0.9971 -0.0738 0.0189
vn -0.1562 0.8295 -0.5362
vn 0.3515 0.0259 -0.9358
vn 0.5721 -0.8142 0.0988
vn 0.0376 -0.6741 -0.7376
vn 0.9968 0.0771 -0.0197
vn -0.1494 -0.6470 0.7477
vt 0.798902 0.222352
vt 0.581800 0.125404
vt 0.833311 0.115295
vt 0.060337 0.462551
vt 0.057058 0.450537
vt 0.180919 0.479712
vt 0.309423 0.569358
vt 0.180468 0.569830
vt 0.446481 0.515947
vt 0.227242 0.322484
vt 0.435788 0.396206
vt 0.195152 0.262846
vt 0.216156 0.209111
vt 0.438388 0.178238
vt 0.048572 0.320887
vt 0.756406 0.715648
vt 0.809626 0.933948
vt 0.797896 0.943532
vt 0.583127 0.892546
vt 0.584139 0.772327
vt 0.066191 0.141739
vt 0.116079 0.099928
vt 0.446481 0.815721
vt 0.450524 0.642437
vt 0.539979 0.943532
vt 0.766336 0.666953
vt 0.490566 0.568661
vt 0.614883 0.565807
vt 0.834675 0.178238
vt 0.612444 0.209111
vt 0.512366 0.099928
vt 0.708999 0.056467
vt 0.842768 0.154405
vt 0.256851 0.671451
vt 0.063170 0.802500
vt 0.048572 0.798199
vt 0.103615 0.594365
vt 0.176593 0.569830
vt 0.259200 0.625131
vt 0.583131 0.561963
vt 0.475652 0.246295
vt 0.833311 0.408327
vt 0.629394 0.565250
vt 0.168826 0.912795
vt 0.259200 0.864092
vt 0.531893 0.565807
vt 0.446481 0.352394
vt 0.464591 0.249729
vt 0.655297 0.056467
vt 0.776705 0.068627
s 1
usemtl stone_2
f 23/1/1 22/2/1 13/3/1
f 21/4/2 3/5/2 4/6/2 2/7/2 22/8/2
f 1/9/3 2/7/3 4/6/3 7/10/3 5/11/3
f 5/11/4 7/10/4 11/12/4 12/13/4 6/14/4
f 4/6/5 3/5/5 10/15/5 11/12/5 7/10/5
f 16/16/6 15/17/6 14/18/6 18/19/6 17/20/6
f 11/12/7 10/15/7 8/21/7 9/22/7 12/13/7
f 23/23/8 13/24/8 17/20/8 18/19/8 24/25/8
f 6/26/9 16/16/9 17/20/9 13/24/9 1/27/9 5/28/9
f 6/29/10 12/30/10 9/31/10 15/32/10 16/33/10
f 20/34/11 14/35/11 15/36/11 9/37/11 8/38/11 19/39/11
f 19/40/12 21/41/12 22/2/12 23/1/12 24/42/12 20/43/12
f 18/44/13 14/35/13 20/34/13 24/45/13
f 8/46/14 10/47/14 3/48/14 21/41/14 19/40/14
f 13/3/15 22/2/15 2/49/15 1/50/15
